<?xml version="1.0" encoding="UTF-8"?>
<svg xmlns="http://www.w3.org/2000/svg" xmlns:xlink="http://www.w3.org/1999/xlink" width="800px" height="281px" viewBox="0 0 800 281" version="1.1">
<g id="surface1">
<rect x="0" y="0" width="800" height="281" style="fill:rgb(100%,100%,100%);fill-opacity:1;stroke:none;"/>
<path style=" stroke:none;fill-rule:nonzero;fill:rgb(0%,0%,40.000001%);fill-opacity:1;" d="M 203.464844 141.34375 C 203.464844 141.34375 198.96875 81.910156 327.199219 58.308594 C 327.199219 58.308594 375.066406 49.316406 402 69.125 C 402 69.125 427.464844 88.023438 399.199219 107.203125 C 399.199219 107.203125 387.464844 114.4375 370.398438 122.445312 C 370.398438 122.445312 324.398438 142.816406 327.734375 171.128906 C 327.734375 171.128906 332.265625 215.386719 422.398438 221.917969 C 422.398438 221.917969 329.066406 228.101562 289.199219 177.242188 C 289.199219 177.242188 256.933594 138.742188 331.066406 100.316406 C 331.066406 100.316406 342.800781 95.609375 334.535156 89.429688 C 334.535156 89.429688 327.734375 84.722656 314.535156 87.953125 C 314.535156 87.953125 256.933594 104.671875 252.535156 146.753906 C 252.535156 146.753906 245.867188 198.175781 347.601562 220.796875 C 347.601562 220.796875 206.398438 208.957031 203.464844 141.273438 Z M 203.464844 141.34375 "/>
<path style=" stroke:none;fill-rule:nonzero;fill:rgb(0%,0%,40.000001%);fill-opacity:1;" d="M 596.535156 139.65625 C 596.535156 139.65625 601.03125 199.089844 472.800781 222.691406 C 472.800781 222.691406 424.933594 231.683594 398 211.875 C 398 211.875 372.535156 192.976562 400.800781 173.796875 C 400.800781 173.796875 412.535156 166.5625 429.601562 158.554688 C 429.601562 158.554688 475.601562 138.183594 472.265625 109.871094 C 472.265625 109.871094 467.734375 65.613281 377.601562 59.082031 C 377.601562 59.082031 470.933594 52.898438 510.800781 103.757812 C 510.800781 103.757812 543.066406 142.257812 468.933594 180.683594 C 468.933594 180.683594 457.199219 185.390625 465.464844 191.570312 C 465.464844 191.570312 472.265625 196.277344 485.464844 193.046875 C 485.464844 193.046875 543.066406 176.328125 547.464844 134.246094 C 547.464844 134.246094 554.132812 82.824219 452.398438 60.203125 C 452.398438 60.203125 593.601562 72.042969 596.535156 139.726562 Z M 596.535156 139.65625 "/>
</g>
</svg>
